<?xml version="1.0" encoding="utf-8"?>
<!-- Generator: Adobe Illustrator 20.1.0, SVG Export Plug-In . SVG Version: 6.00 Build 0)  -->
<svg version="1.1" id="Livello_1" xmlns="http://www.w3.org/2000/svg" xmlns:xlink="http://www.w3.org/1999/xlink" x="0px" y="0px"
	 viewBox="0 0 30 30" style="enable-background:new 0 0 30 30;" xml:space="preserve">
<style type="text/css">
	.st0{fill:#FFFFFF;}
	.st1{fill:#F39200;}
	.st2{fill:#F9B233;}
</style>
<g id="vTXBBi_1_">
	<g>
		<path d="M-110,98.2c0-27.3,0-53.9,0-80.5c-0.4,0-0.7,0-1.1-0.1c-0.1,1.4-0.2,2.9-0.2,4.3c0,24.4,0,48.9,0,73.3c0,1.5-0.7,3-1,4.5
			c-0.7-0.1-1.3-0.1-2-0.2c-0.1-13.3,0-26.6,0-39.9c0-13.4,0-26.8-0.7-40.2c0,3.3,0,6.6,0,9.9c0,22.2,0,44.3,0,66.5
			c0,0.7,0.2,1.5-0.1,2.1c-0.4,0.9-1,1.6-1.6,2.5c-0.6-0.8-1.6-1.6-1.8-2.5c-0.3-1.1-0.1-2.4-0.1-3.6c0-23.7,0-47.5,0-71.2
			c0-1.2,0-2.4,0-3.6c-0.2,0-0.5,0-0.7,0c0,3.3,0,6.7,0,10c0,21.9,0,43.9,0,65.8c0,0.5,0.1,1,0,1.4c-0.6,1.2-1.2,2.4-1.9,3.6
			c-0.6-1.2-1.6-2.3-1.6-3.5c-0.2-4.5-0.1-9.1-0.1-13.7c0-20,0-40,0-60c0-1.3,0-2.6,0-3.8c-0.3,0-0.6,0-0.9,0c0,26.6,0,53.2,0,79.9
			c-0.5,0.1-1,0.3-1.5,0.4c-0.4-1.4-1.2-2.8-1.2-4.2c-0.1-9.8-0.1-19.7-0.1-29.5c0-14.9,0-29.7,0-44.6c0-1.3,0-2.6,0-3.9
			c-0.4,0-0.7,0-1.1,0c0,26.6,0,53.3,0,80.3c-3.6-0.7-3.2-3-3.2-4.8c0-17,0-34,0-51.1c0-8.9,0-17.8,0-26.8c-0.3,0-0.6,0-0.9,0
			c0,26.2,0,52.5,0,78.7c-0.5,0.1-0.9,0.2-1.4,0.3c-0.7-2.4-1.9-4.7-1.9-7.1c-0.1-27.2-0.1-54.4,0-81.6c0-3.8,1.9-6.9,4.9-9.2
			c6.6-4.9,15.9-4.9,22.5,0c3.1,2.3,4.9,5.3,4.9,9.2c0,27.3,0.1,54.6-0.1,82c0,2.3-1.3,4.5-1.9,6.8c-0.4-0.1-0.8-0.2-1.2-0.3
			c0-26.5,0-52.9,0-79.4c-0.3,0-0.6,0-0.9-0.1c-0.1,1.2-0.2,2.5-0.2,3.7c0,24.8,0,49.6,0,74.4C-107,94.7-106.5,96.9-110,98.2z
			 M-118.9,15.8c0.1,0.3,0.2,0.6,0.4,0.9c3.2-1.4,6.7-2.3,9.5-4.3c4.8-3.5,4.7-9.6,0.4-13.6c-5.8-5.4-16.6-4.8-21.6,1.2
			c-2.6,3.1-2.6,7.8,0,10.9C-127.3,14.3-123.5,16-118.9,15.8z"/>
		<path d="M-269,200.7c-13.2-0.8-24-6.8-31-19.1c-1.6-2.9-1.4-5.7,1-7.4c3.4-2.4,7.3-4.4,11.2-5.8c3.1-1.1,5.8,0.2,7.9,3.3
			c4.5,6.5,11.5,8.2,18,4.9c6.3-3.2,8.9-9.6,6.6-17.1c-0.8-2.7-0.3-4.7,1.5-6.6c3.4-3.7,7.6-5.7,12.6-6.2c3.3-0.4,5.5,1,6.7,4.1
			c5,12.9,3.2,25-5.2,35.9C-246.7,195.9-256.6,200.4-269,200.7z"/>
		<path d="M-212.5,230.6c-3.3,2.3-3.6,2.2-4.6-1.6c-3.8,1.7-4.3,1.4-4.2-2.9c-2.5,1.3-4.8,1.8-4.3-2.3c-4.1-0.8-4.8-2.1-1.9-4.9
			c4.5-4.3,9.5-8,14.3-11.9c0.9-0.8,2-1.3,3-1.9c2.5-1.5,2.3-2.9,0-4.6c-4.9-3.5-9.6-7.1-14.4-10.8c-1.2-0.9-2.4-2-3.3-3.2
			c-0.7-0.9-1.3-2.3-1-3.2c0.2-0.7,1.8-1,3.2-1.7c-0.1-2.6,0.9-4.2,4.2-1.9c0.3-4.3,0.8-4.6,4.3-3c1.2-3.8,1.4-3.9,4.6-1.7
			c2.3-3.7,2.4-3.7,4.9-0.9c0.9-0.8,1.9-2.2,2.8-2.2c0.9,0,1.9,1.4,2.8,2.3c2.6-2.7,2.7-2.7,5.1,0.4c1-0.3,1.9-0.7,3.1-1.1
			c0.4,1.1,0.8,2.1,1.3,3.3c1.9-1.1,3.4-1.5,5,1.2c1.2,2,4.3,2.9,6.3,4.6c0.5,0.5,0.2,2.8-0.5,3.5c-4.3,4-8.8,7.8-13.2,11.6
			c-0.9,0.8-2,1.3-3,2c-4.4,2.9-4.3,3.3-0.2,6.4c5.2,3.9,10.1,8.1,15.1,12.1c0.3,0.2,0.6,0.5,0.8,0.8c0.6,1.1,1.2,2.2,1.8,3.3
			c-1.1,0.6-2.1,1.1-3.5,1.8c0.5,3.1-1.2,3.7-4.3,2.1c0.4,4.2-1.3,4.6-4.4,2.5c-0.3,3.2-1.4,5-4.3,2.2c-1.5,3.2-3.1,3.6-4.8,0.7
			c-0.9,0.9-1.8,2.3-2.7,2.4c-0.9,0-1.9-1.4-2.9-2.2C-210.2,234.4-210.5,234.3-212.5,230.6z"/>
		<path d="M-154,121.5c12.8,0,25.6,0,38.4,0c8.1,0,19.4,8.9,21,16.8c0.2,1-0.9,2.8-1.9,3.5c-1.1,0.7-2.8,0.5-4.2,0.5
			c-25.4,0-50.7,0-76.1,0c-8.1,0-19.7-9.1-21.7-16.9c-0.7-2.8,0.3-3.9,3.8-3.9c7.8-0.1,15.6,0,23.3,0
			C-165.5,121.5-159.8,121.5-154,121.5C-154,121.5-154,121.5-154,121.5z M-197.2,123.6c1.2,7.2,10.7,16.5,16.9,16.6
			C-179.7,134.3-190.9,123.1-197.2,123.6z"/>
		<path d="M-271,126.1c0,20.3-16.9,37.5-36.5,37.2c-3.5,0-5.9-1.5-7.7-4.4c-4.5-7.1-0.6-19.2,9.1-19c6.1,0.1,11.5-6.3,11.9-12.4
			c0.5-7.5-3.6-13.5-10.4-15.2c-0.9-0.2-1.9-0.5-2.8-0.5c-5.1-0.1-7.8-3-9.2-7.6c-1.4-4.9-0.6-9.5,3-13c1.5-1.5,4.3-2.5,6.4-2.5
			C-287.1,89.1-271,106-271,126.1z M-302,100.3c0-5.1-2.4-8.7-6-8.9c-3.5-0.2-6.4,3.4-6.7,8.3c-0.3,4.8,2.7,9.4,6.3,9.5
			C-304.7,109.3-302,105.5-302,100.3z M-302,151.8c0-0.4,0-1.1-0.1-1.8c-0.6-4.1-2.8-6.7-5.7-6.8c-3.1-0.2-5.5,2.2-6.5,6.4
			c-0.2,0.7-0.3,1.4-0.4,2.1c-0.2,4.7,2.7,9,6.2,9.2C-305,161.2-302,157.2-302,151.8z"/>
		<path d="M-154.8,164.5c-13.4,0-26.8,0-40.3,0c-1.1,0-2.2-0.1-3.1-0.5c-6.4-3.2-11.3-8-14.6-14.4c-1.1-2.1-0.9-3.6,2.2-3.6
			c25.9,0,51.7,0.3,77.6-0.3c7.8-0.2,13,2.9,17.6,8.3c1.8,2.1,3.2,4.5,4.5,6.9c1.3,2.4,0.4,3.9-2.5,3.8c-7.4,0-14.9,0-22.3,0
			c-6.4,0-12.7,0-19.1,0C-154.8,164.7-154.8,164.6-154.8,164.5z"/>
		<path d="M-169.6-10.8c-0.8-7.9,1.9-12.3,8.7-14.7c7.2-2.5,15.6,0.1,19.1,5.8c1.8,2.9,1.7,5.9,0.9,9c-0.2,0.5-0.5,1-0.7,1.4
			c-0.9,0.9-1.9,1.9-2.8,2.8c-0.6,0.5-1.1,1.1-1.7,1.6c-0.7,0.2-1.4,0.4-1.8,0.5c0.2,1.9,0.6,3.6,0.6,5.3c0,24.7,0,49.4,0,74
			c0,2,0.6,4.4-3.1,5.2c0-27.9,0-55.4,0-83c-0.3,0-0.6-0.1-0.9-0.1c-0.1,0.7-0.3,1.3-0.3,2c0,25.5,0,51,0,76.6c0,0.2,0.1,0.5,0,0.7
			c-0.5,1.4-1,2.9-1.6,4.3c-0.5-1.4-1.4-2.8-1.4-4.2c-0.1-24.7-0.1-49.4-0.1-74c0-1.4,0-2.8,0-4.2c-0.4,0-0.8,0-1.2,0
			c0,1.3,0,2.6,0,4c0,24.7,0,49.4-0.1,74c0,1.5-0.8,3-1.2,4.4c-0.6-1.5-1.7-2.9-1.7-4.4c-0.1-25.9,0-51.8,0-77.6
			c0-0.5-0.1-1.1-0.7-1.6c0,1.4,0,2.8,0,4.2c0,24.9,0,49.8,0,74.8c0,0.7,0.1,1.5-0.1,2.1c-0.3,0.7-0.9,1.7-1.3,1.7
			c-0.6,0-1.5-0.7-1.8-1.4c-0.4-0.7-0.3-1.6-0.3-2.5c0-25.3,0-50.6,0-75.8c0-1.2,0.6-2.3,0.6-3.5c0-0.5-0.7-1-1.2-1.6
			c-0.8-0.5-1.6-1.1-2.4-1.6c-0.7-0.7-1.4-1.4-2-2.1C-168.6-9.4-169.1-10.1-169.6-10.8z"/>
		<path d="M-199.7,57.9c-0.3,8.8-3,17.3-8.3,25c-1.4,2-2.4,2.4-4.4,0.6c-3.6-3.2-7.6-6.2-11.5-9.1c-11.7-8.9-11.9-24.8-0.2-33.7
			c4.2-3.2,8.3-6.4,12.4-9.7c1.9-1.5,2.8-0.5,3.7,0.9C-202.9,39.6-199.9,48-199.7,57.9z"/>
		<path d="M-242.3,101.5c-9.6,0.1-17.9-2.9-25.6-8.1c-2.1-1.4-2.3-2.5-0.5-4.5c3.2-3.7,6.3-7.5,9.1-11.5
			c8.1-11.3,24.5-11.6,32.9-0.5c3.2,4.2,6.4,8.3,9.8,12.3c1.5,1.8,1.2,2.8-0.6,4C-224.9,98.4-233.2,101.6-242.3,101.5z"/>
		<path d="M-235.8,21.7c-3.7,2.2-7.6,4.8-11.8,6.9c-3,1.5-6.6,1.4-9.2-0.8c-4.7-4-9.1-8.3-13.4-12.8c-2.2-2.3-3.7-5.3-5.7-7.8
			c-2-2.5-4.2-4.7-6.5-7.2C-277.2-10-265-12.1-257-3.6c3.9,4.2,7,9,10.7,13.5C-243.2,13.7-239.8,17.3-235.8,21.7z"/>
		<path d="M-291.9,25.1c3.7,0.3,6.9,1.5,8.8,4.8c1,1.7,2,2.5,4.2,2.6c8.2,0.4,12.6,8.3,9.2,15.8c-0.6,1.3-0.5,3.3,0.1,4.5
			c3.4,7.7-0.7,14.7-9,15.6c-1.4,0.2-3.1,1.2-4,2.3c-5.3,6.9-13.1,6.9-18.4,0c-0.9-1.2-2.8-2.2-4.3-2.3c-7.7-0.8-11.9-8.1-8.8-15.3
			c0.6-1.3,0.8-3.3,0.2-4.5c-3.5-7.9,0.6-15.2,9.2-16.3c1.4-0.2,3-1.2,3.8-2.3C-298.7,26.8-295.7,25.3-291.9,25.1z M-305.7,48.8
			c3.2,0,6.7-2.9,6.9-5.7c0.2-2.3-3.7-6.9-5.8-7c-3.6-0.1-6.9,3.1-7.1,6.8C-311.8,46.7-309.7,48.7-305.7,48.8z M-292,72.2
			c3.3,0.1,6.8-2.8,6.8-5.6c-0.1-3.5-3.4-6.3-7.6-6.4c-2.5-0.1-5.7,3.6-5.7,6.5C-298.5,69.4-295.2,72.2-292,72.2z M-278.5,48.8
			c4.1,0,6.4-2.1,6.4-5.9c0-3.3-3.4-6.7-6.7-6.8c-2.4,0-6,3.8-6.2,6.5C-285.1,45.3-281.4,48.8-278.5,48.8z M-278.3,52.5
			c-3.3,0-6.8,3.1-6.7,5.9c0.1,2.7,3.7,6.3,6.3,6.3c3.8-0.1,6.5-2.9,6.6-6.7C-272,54.3-274,52.5-278.3,52.5z M-291.8,40.9
			c3.1,0,6.4-3.2,6.5-6.2c0.1-3-3.1-5.8-6.6-5.8c-3.4,0-6.9,2.9-6.8,5.7C-298.5,37.6-295,40.9-291.8,40.9z M-305.7,52.5
			c-4.1,0-6,1.8-6,5.4c0,3.9,3,6.8,6.9,6.8c2.5,0,6.2-4,6-6.5C-299,55.1-302.2,52.5-305.7,52.5z M-297.6,50.6c0,3.4,2.5,6,5.7,6
			c3.4,0,5.9-2.7,5.7-6.4c-0.1-3.2-2.5-5.5-5.7-5.5C-295.3,44.7-297.7,47.1-297.6,50.6z"/>
		<path d="M-69.2,223.3c-1.7-3-1.7-227.2,0.4-230.4c0.5,1,1.1,1.7,1.2,2.5c0.2,1.2,0.1,2.4,0.1,3.6c0,73,0,146,0,218.9
			c0,1.9-0.4,3.7-0.6,5.6C-68.5,223.4-68.8,223.4-69.2,223.3z"/>
		<path d="M-73.5,209.1c-0.4-0.9-0.9-1.7-1.1-2.6c-0.2-1-0.1-2.1-0.1-3.2c0-72,0-144,0-216c0-2.8,0.3-5.6,0.5-8.3
			c0.4-0.1,0.8-0.1,1.1-0.2c0.4,0.7,1,1.4,1.1,2.2c0.2,1.3,0.1,2.6,0.1,3.9c0,73,0,145.9,0,218.9c0,1.8-0.3,3.5-0.4,5.3
			C-72.6,209-73.1,209.1-73.5,209.1z"/>
		<path d="M-76.6-6.5c0,76.7,0,153.4,0,230.1c-0.3,0.1-0.6,0.2-0.9,0.3c-0.4-0.7-1.1-1.4-1.1-2.1c-0.2-2.9-0.3-5.7-0.3-8.6
			c0-71.3,0-142.6,0-213.9c0-2,0.4-4,0.7-6C-77.7-6.6-77.2-6.5-76.6-6.5z"/>
		<path d="M-216.5,103.2c4.4-5.6,8.3-11.5,13.1-16.6c7.9-8.4,21.9-7.7,29.3,1.2c3.7,4.5,7.2,9.2,10.9,13.8c1.5,1.8,0.4,2.9-0.9,3.8
			c-8.6,5.8-18,9-28.5,8.1c-7.8-0.7-14.9-3.3-21.4-7.8c-0.7-0.5-1.4-1-2-1.5C-216.2,103.9-216.3,103.5-216.5,103.2z M-166.1,103.9
			c-14.2-11.5-30.5-12.7-46.6-0.1C-202.9,114-175.2,114-166.1,103.9z"/>
		<path d="M-81.5-21c1.7,2.7,1.7,227.3-0.1,229.8C-83.3,206-83.2-18.5-81.5-21z"/>
		<path d="M-220.6,12.8c-5.7,7.3-13.1,8.1-19.5,1.1c-4.4-4.8-8.1-10.3-12.1-15.6c-0.5-0.6-0.5-2.2,0-2.8c4.1-5.8,12.4-6.2,17.1-0.9
			c1.9,2.2,3.5,4.5,5.3,6.8C-226.8,5.2-223.8,8.8-220.6,12.8z"/>
		<path d="M-166.1-6.6c0.8,0.5,1.6,1.1,2.4,1.6c0,25.8-0.1,51.5-0.1,77.3c0,1.7-0.2,3.5-0.3,5.6c-3-0.7-3.3-2.6-3.3-4.7
			c0-6.4,0-12.7,0-19.1c0-18.6,0-37.2,0.1-55.7C-167.4-3.3-166.6-4.9-166.1-6.6z"/>
		<path d="M-146-5c0.6-0.5,1.1-1.1,1.7-1.6c0.5,1.3,1.3,2.5,1.3,3.8c0.1,25.3,0.1,50.6,0.1,75.9c0,2.1-0.1,4.1-3.2,4.8
			c-0.2-1.4-0.4-2.7-0.4-3.9c0-24.8,0-49.6,0-74.4C-146.6-1.9-146.2-3.4-146-5z"/>
		<path d="M-141.6-9.3c0.2-0.5,0.5-1,0.7-1.4c0.5-0.4,1-0.9,1.9-1.7c0.1,1.6,0.3,2.6,0.3,3.6c-0.1,19.4-0.2,38.8-0.3,58.2
			c0,5.3,0.4,10.5,0.2,15.8c-0.1,3-1.1,5.9-1.7,8.8c-0.5,0-1-0.1-1.5-0.1c-0.1-1.1-0.3-2.1-0.3-3.2c0-25,0-50.1,0-75.1
			C-142.3-6-141.8-7.7-141.6-9.3z"/>
		<path d="M-169.6-10.8c0.5,0.7,1,1.5,1.5,2.2c0,27.4,0,54.9,0,82.3c-0.4,0.1-0.8,0.2-1.3,0.3c-0.6-1.8-1.6-3.6-1.6-5.4
			c-0.1-26.5-0.1-52.9-0.1-79.4c0-0.3,0.2-0.6,0.4-1.2C-170.2-11.5-169.9-11.2-169.6-10.8z"/>
		<path d="M-207.5,4.2c-0.4,0.3-0.8,0.5-1.2,0.8c-3.1,2.4-6.2,7.3-10.2,5c-4.3-2.4-7.2-7.3-10.6-11.2c-0.3-0.3,0.3-1.8,0.8-2.4
			c2.8-2.8,6.1-2.6,9.1,0.5C-216.3,0.6-212.9,3.5-207.5,4.2z"/>
		<path class="st0" d="M-118.9,15.8c-4.6,0.3-8.4-1.5-11.4-4.9c-2.6-3.1-2.6-7.7,0-10.9c5-6.1,15.8-6.7,21.6-1.2
			c4.4,4.1,4.4,10.1-0.4,13.6c-2.7,2-6.3,2.9-9.5,4.3C-118.7,16.4-118.8,16.1-118.9,15.8z"/>
		<path class="st0" d="M-197.2,123.6c6.3-0.6,17.5,10.7,16.9,16.6C-186.5,140.1-196,130.8-197.2,123.6z"/>
		<path class="st0" d="M-302,100.3c0,5.2-2.7,9-6.4,8.9c-3.6-0.1-6.6-4.6-6.3-9.5c0.3-4.9,3.3-8.5,6.7-8.3
			C-304.4,91.6-302,95.2-302,100.3z"/>
		<path class="st0" d="M-302,151.8c0,5.4-3,9.4-6.5,9.1c-3.5-0.2-6.4-4.5-6.2-9.2c0-0.7,0.2-1.4,0.4-2.1c1-4.3,3.4-6.6,6.5-6.4
			c2.9,0.2,5.1,2.8,5.7,6.8C-302,150.7-302,151.4-302,151.8z"/>
		<path class="st0" d="M-305.7,48.8c-4-0.1-6.1-2.1-5.9-5.9c0.2-3.7,3.5-6.9,7.1-6.8c2.1,0.1,5.9,4.7,5.8,7
			C-299,45.9-302.5,48.9-305.7,48.8z"/>
		<path class="st0" d="M-292,72.2c-3.2-0.1-6.5-2.9-6.5-5.6c0-2.9,3.2-6.6,5.7-6.5c4.2,0.1,7.5,2.9,7.6,6.4
			C-285.2,69.4-288.7,72.3-292,72.2z"/>
		<path class="st0" d="M-278.5,48.8c-2.9,0-6.6-3.5-6.5-6.1c0.2-2.7,3.8-6.6,6.2-6.5c3.3,0.1,6.7,3.5,6.7,6.8
			C-272,46.7-274.3,48.8-278.5,48.8z"/>
		<path class="st0" d="M-278.3,52.5c4.3,0,6.3,1.8,6.2,5.5c-0.1,3.8-2.9,6.6-6.6,6.7c-2.6,0.1-6.2-3.6-6.3-6.3
			C-285.1,55.6-281.6,52.5-278.3,52.5z"/>
		<path class="st0" d="M-291.8,40.9c-3.2,0-6.8-3.3-6.9-6.4c-0.1-2.8,3.3-5.7,6.8-5.7c3.5,0,6.7,2.8,6.6,5.8
			C-285.4,37.7-288.7,40.9-291.8,40.9z"/>
		<path class="st0" d="M-305.7,52.5c3.6,0,6.8,2.6,6.9,5.7c0.1,2.5-3.6,6.5-6,6.5c-3.9,0-6.9-2.9-6.9-6.8
			C-311.7,54.3-309.8,52.5-305.7,52.5z"/>
		<path class="st0" d="M-297.6,50.6c0-3.5,2.3-5.9,5.7-5.9c3.3,0,5.6,2.3,5.7,5.5c0.1,3.7-2.3,6.4-5.7,6.4
			C-295.1,56.6-297.6,54-297.6,50.6z"/>
		<path class="st0" d="M-166.1,103.9c-9.1,10.2-36.9,10.1-46.6-0.1C-196.5,91.1-180.3,92.3-166.1,103.9z"/>
	</g>
</g>
<g>
	<path class="st1" d="M14.8,1.1c7.7,0,14,6.3,14,14s-6.3,14-14,14s-14-6.3-14-14S7.1,1.1,14.8,1.1 M14.8,0.1c-8.3,0-15,6.7-15,15
		s6.7,15,15,15s15-6.7,15-15S23.1,0.1,14.8,0.1L14.8,0.1z"/>
</g>
<path class="st2" d="M7.3,22.8C6.1,23,6,22.4,6.4,21.4c-1.2,0-1.8-0.4-0.8-1.5c-1.4-0.5-1.4-0.5-0.9-1.7c-1.1-0.5-1-1.1,0-1.7
	c-1.3-1-1.3-1.1,0-1.9c-1.1-1-1-1.1,0.3-1.8c-0.8-1.2-0.8-1.3,0.6-1.6C4.9,9.8,5,9.7,6.5,9.7C6.2,8.9,5.7,7.9,7.3,8.2
	c0.3-1.5,0.8-1.8,1.8-0.7c1.6,1.8,3.1,3.6,4.5,5.6c1.2,1.6,1.2,1.6,2.4-0.1c1.4-1.9,2.9-3.8,4.5-5.6c0.3-0.3,0.9-0.3,1.3-0.5
	c0.1,0.4,0.2,0.8,0.2,1.3c1.5-0.1,1.6,0,1,1.4c0.8,0,1.7-0.1,1.3,1.2c0,0.1,0.1,0.3,0.3,0.4c1.1,0.5,0.5,1,0,1.6
	c1.4,0.7,1.4,0.8,0.3,1.8c1.3,0.9,1.3,1,0,1.8c0.3,0.3,0.5,0.7,0.9,1.1c-0.4,0.3-0.7,0.5-1,0.8c0.1,0.3,0.3,0.6,0.5,1.1
	c-0.4,0.2-0.8,0.3-1.2,0.5c0.5,1.4,0.5,1.5-1.1,1.5c0.6,0.9,0.6,1.7-0.7,1.6c-0.2,0.5-0.4,0.8-0.6,1.2c-0.5-0.2-1.1-0.4-1.4-0.8
	c-1.6-1.9-3.1-3.8-4.5-5.7c-0.9-1.2-1.1-1.2-2.1,0c-1.5,2-3.1,3.9-4.7,5.8c-0.3,0.3-0.8,0.4-1.2,0.5C7.7,23.7,7.5,23.4,7.3,22.8z"/>
</svg>
