<?xml version="1.0" encoding="utf-8"?>
<!-- Generator: Adobe Illustrator 20.1.0, SVG Export Plug-In . SVG Version: 6.00 Build 0)  -->
<svg version="1.1" id="Livello_1" xmlns="http://www.w3.org/2000/svg" xmlns:xlink="http://www.w3.org/1999/xlink" x="0px" y="0px"
	 viewBox="0 0 75 30" style="enable-background:new 0 0 75 30;" xml:space="preserve">
<style type="text/css">
	.st0{fill:#F15A29;}
</style>
<g>
	<path class="st0" d="M14.8,3.7c6.4,0,11.6,5.2,11.6,11.6s-5.2,11.6-11.6,11.6S3.3,21.6,3.3,15.3S8.5,3.7,14.8,3.7 M14.8,1.7
		C7.4,1.7,1.3,7.8,1.3,15.3s6.1,13.6,13.6,13.6s13.6-6.1,13.6-13.6S22.3,1.7,14.8,1.7L14.8,1.7z"/>
</g>
<g>
	<g>
		<path d="M34.2,18l-0.5,0.2c0-0.2-0.1-0.3-0.3-0.5s-0.3-0.2-0.5-0.2c-0.1,0-0.3,0-0.4,0.1s-0.2,0.2-0.3,0.3c0,0.1-0.1,0.2-0.1,0.3
			c0,0.3,0.1,0.5,0.4,0.6l1.1,0.4c0.2,0.1,0.4,0.3,0.5,0.5c0.1,0.2,0.2,0.4,0.2,0.6c0,0.2,0,0.4-0.1,0.6c-0.1,0.2-0.2,0.3-0.3,0.5
			c-0.3,0.2-0.6,0.3-0.9,0.3c-0.3,0-0.6-0.1-0.8-0.2c-0.1-0.1-0.2-0.2-0.3-0.4c-0.1-0.1-0.1-0.3-0.2-0.5l0.5-0.2
			c0,0.3,0.1,0.5,0.3,0.6s0.4,0.3,0.6,0.3c0.1,0,0.2,0,0.3,0c0.1,0,0.2-0.1,0.3-0.1c0.1-0.1,0.2-0.2,0.2-0.3
			c0.1-0.1,0.1-0.2,0.1-0.4c0-0.2,0-0.3-0.1-0.4c-0.1-0.1-0.2-0.2-0.2-0.2c0,0-0.1-0.1-0.3-0.2l-0.8-0.3c-0.2-0.1-0.4-0.3-0.5-0.4
			c-0.1-0.2-0.2-0.4-0.2-0.6c0-0.1,0-0.2,0-0.3c0-0.2,0.1-0.3,0.3-0.5c0.2-0.2,0.3-0.3,0.5-0.3c0.2,0,0.4-0.1,0.5-0.1
			c0.1,0,0.1,0,0.1,0c0,0,0.1,0,0.3,0.1c0.1,0,0.3,0.1,0.5,0.3C34.1,17.6,34.2,17.8,34.2,18z"/>
		<path d="M40.4,17.7h-1.3v4h-0.5v-4h-1.3v-0.5h3.1V17.7z"/>
		<path d="M46.6,17.2l0,3.1c0,0.3-0.1,0.5-0.2,0.8s-0.3,0.4-0.6,0.6c-0.3,0.2-0.7,0.2-1,0.2s-0.7-0.1-0.9-0.2s-0.5-0.3-0.5-0.6
			c-0.1-0.2-0.1-0.4-0.2-0.5c0-0.1,0-0.2,0-0.3v-3h0.5v3c0,0.2,0.1,0.4,0.2,0.6c0.1,0.2,0.2,0.3,0.4,0.4c0.2,0.1,0.4,0.1,0.7,0.1
			c0.2,0,0.3,0,0.5-0.1c0.1-0.1,0.3-0.1,0.4-0.3s0.2-0.2,0.2-0.4c0.1-0.1,0.1-0.2,0.1-0.4v0v-3H46.6z"/>
		<path d="M51.6,21.5c-0.2,0.1-0.3,0.1-0.5,0.2c-0.2,0-0.3,0.1-0.5,0.1h-1.7v-4.5h1.9c0.6,0.1,1,0.3,1.3,0.8c0.3,0.4,0.5,1,0.5,1.5
			c0,0.4-0.1,0.8-0.3,1.2S52,21.3,51.6,21.5z M52.1,19.2c0-0.4-0.2-0.7-0.4-0.9c-0.2-0.3-0.5-0.4-0.9-0.5h-1.3v3.5h1.1
			c0.4,0,0.8-0.2,1.1-0.5c0.3-0.4,0.4-0.8,0.4-1.2C52.1,19.4,52.1,19.3,52.1,19.2z"/>
		<path d="M56.8,21.8h-0.5v-4.5h0.5V21.8z"/>
		<path d="M64.9,19.5c0,0.7-0.2,1.2-0.7,1.7c-0.5,0.5-1,0.7-1.6,0.7c-0.7,0-1.2-0.2-1.7-0.7s-0.7-1-0.7-1.7c0-0.7,0.2-1.2,0.7-1.7
			c0.5-0.5,1-0.7,1.6-0.7c0.7,0,1.2,0.2,1.7,0.7C64.6,18.2,64.9,18.8,64.9,19.5z M64.3,19.4c0-0.5-0.2-1-0.5-1.3
			c-0.4-0.4-0.8-0.5-1.3-0.5c-0.5,0-0.9,0.2-1.3,0.6c-0.3,0.4-0.5,0.8-0.5,1.3c0,0.5,0.2,1,0.5,1.3s0.8,0.5,1.3,0.5
			c0.5,0,0.9-0.2,1.3-0.6C64.1,20.4,64.3,20,64.3,19.4z"/>
		<path d="M69.6,18l-0.5,0.2c0-0.2-0.1-0.3-0.3-0.5s-0.3-0.2-0.5-0.2c-0.1,0-0.3,0-0.4,0.1s-0.2,0.2-0.3,0.3c0,0.1-0.1,0.2-0.1,0.3
			c0,0.3,0.1,0.5,0.4,0.6l1.1,0.4c0.2,0.1,0.4,0.3,0.5,0.5c0.1,0.2,0.2,0.4,0.2,0.6c0,0.2,0,0.4-0.1,0.6c-0.1,0.2-0.2,0.3-0.3,0.5
			c-0.3,0.2-0.6,0.3-0.9,0.3c-0.3,0-0.6-0.1-0.8-0.2c-0.1-0.1-0.2-0.2-0.3-0.4c-0.1-0.1-0.1-0.3-0.2-0.5l0.5-0.2
			c0,0.3,0.1,0.5,0.3,0.6s0.4,0.3,0.6,0.3c0.1,0,0.2,0,0.3,0c0.1,0,0.2-0.1,0.3-0.1c0.1-0.1,0.2-0.2,0.2-0.3
			c0.1-0.1,0.1-0.2,0.1-0.4c0-0.2,0-0.3-0.1-0.4c-0.1-0.1-0.2-0.2-0.2-0.2c0,0-0.1-0.1-0.3-0.2l-0.8-0.3c-0.2-0.1-0.4-0.3-0.5-0.4
			c-0.1-0.2-0.2-0.4-0.2-0.6c0-0.1,0-0.2,0-0.3c0-0.2,0.1-0.3,0.3-0.5c0.2-0.2,0.3-0.3,0.5-0.3c0.2,0,0.4-0.1,0.5-0.1
			c0.1,0,0.1,0,0.1,0c0,0,0.1,0,0.3,0.1c0.1,0,0.3,0.1,0.5,0.3C69.4,17.6,69.6,17.8,69.6,18z"/>
	</g>
	<g>
		<path d="M34.7,10.6c0,0.1,0,0.2,0,0.2c0,0.5-0.1,0.9-0.4,1.2s-0.6,0.5-1.1,0.6h-1.3v3.1h-0.8V8.9l2,0c0.4,0.1,0.8,0.2,1.1,0.5
			C34.5,9.8,34.7,10.2,34.7,10.6z M33.3,9.8c-0.1,0-0.3-0.1-0.4-0.1h-1V12h1.3c0.2-0.1,0.4-0.2,0.6-0.5s0.2-0.5,0.2-0.7
			c0-0.2-0.1-0.4-0.2-0.6C33.6,10,33.5,9.9,33.3,9.8z"/>
		<path d="M43.9,15.8l-0.9,0l-0.8-2.1h-2.5L39,15.8l-0.8,0l2.7-7.1h0.2L43.9,15.8z M42,13l-1-3l-1,3H42z"/>
		<path d="M51.4,10.1l-0.7,0.3c-0.1-0.3-0.2-0.5-0.4-0.7c-0.2-0.2-0.5-0.3-0.8-0.3c-0.2,0-0.4,0-0.5,0.1s-0.3,0.2-0.4,0.4
			c-0.1,0.2-0.1,0.3-0.1,0.5c0,0.4,0.2,0.7,0.5,0.9l1.6,0.6c0.3,0.2,0.5,0.4,0.7,0.7c0.2,0.3,0.2,0.6,0.2,1c0,0.3-0.1,0.6-0.2,0.9
			c-0.1,0.3-0.3,0.5-0.5,0.7c-0.4,0.3-0.8,0.5-1.3,0.5c-0.4,0-0.8-0.1-1.2-0.4c-0.2-0.2-0.3-0.3-0.5-0.5s-0.2-0.5-0.3-0.8l0.7-0.4
			c0,0.4,0.1,0.7,0.4,1c0.3,0.3,0.6,0.4,0.9,0.4c0.1,0,0.3,0,0.4-0.1c0.1,0,0.3-0.1,0.4-0.2c0.1-0.1,0.2-0.2,0.3-0.4
			s0.1-0.4,0.1-0.6c0-0.3-0.1-0.5-0.2-0.7c-0.1-0.1-0.2-0.2-0.3-0.3s-0.2-0.1-0.4-0.2l-1.1-0.4c-0.3-0.2-0.6-0.4-0.8-0.7
			s-0.3-0.6-0.3-1c0-0.1,0-0.3,0.1-0.5c0-0.2,0.2-0.5,0.4-0.8c0.2-0.3,0.5-0.4,0.7-0.5c0.3-0.1,0.5-0.1,0.7-0.1c0.1,0,0.2,0,0.2,0
			c0.1,0,0.2,0,0.4,0.1s0.4,0.2,0.7,0.4C51.1,9.5,51.3,9.8,51.4,10.1z"/>
		<path d="M60.2,9.6h-1.8v6.1h-0.8V9.6h-1.8V8.9h4.4V9.6z"/>
		<path d="M69.3,15.8l-0.9,0l-0.8-2.1h-2.5l-0.8,2.1l-0.8,0l2.7-7.1h0.2L69.3,15.8z M67.3,13l-1-3l-1,3H67.3z"/>
	</g>
</g>
</svg>
